<svg xmlns="http://www.w3.org/2000/svg" xmlns:xlink="http://www.w3.org/1999/xlink" width="720" height="299" viewBox="0 0 720 299">
    <defs>
        <path id="wtqiplfa6a" d="M0.042 0.271L22.472 0.271 22.472 37.849 0.042 37.849z"/>
        <path id="5qp90vaqic" d="M0.862 0.271L23.292 0.271 23.292 37.849 0.862 37.849z"/>
        <path id="gt2upb7zue" d="M0.128 0.014L25.82 0.014 25.82 25 0.128 25z"/>
        <path id="5wgk22gjag" d="M0.087 0.131L16.82 0.131 16.82 29.021 0.087 29.021z"/>
    </defs>
    <g fill="none" fill-rule="evenodd">
        <g>
            <path fill="#FFE965" d="M496 28.5c0 15.74-12.984 28.5-29 28.5s-29-12.76-29-28.5S450.984 0 467 0c8.452 0 16.06 3.554 21.36 9.224C493.105 14.298 496 21.067 496 28.5" opacity=".3" transform="translate(92 31)"/>
            <path fill="#FCE1E1" d="M274 221.5c-30.705-16.97-30.103-60.605-25.583-94.338l.287-2.095c.097-.694.196-1.383.296-2.067 4.998-34.213 51.586-64.021 78.813-67.825 56.697-7.923 135.642 11.952 136.018 103.297.125 30.574-11.957 51.956-39.527 64.063-27.57 12.106-118.32 16.642-150.304-1.035z" opacity=".475" transform="translate(92 31)"/>
            <path fill="#E8F5F5" d="M251.87 57.623c26.893 37.751 32.01 99.674 0 139.8-30.851 38.671-82.395 39.8-110.026 40.405-27.132.595-80.36 1.76-114.557-37.091-35.58-40.42-34.958-106.424-6.304-146.782C70.02-15.109 202.76-11.317 251.87 57.623z" transform="translate(92 31)"/>
        </g>
        <g>
            <path fill="#BF9171" d="M63.818 66.645c0 3.24-2.138 5.867-4.775 5.867-2.638 0-4.776-2.627-4.776-5.867s2.138-5.867 4.776-5.867c2.637 0 4.775 2.627 4.775 5.867M98.516 66.645c0 3.24 2.138 5.867 4.775 5.867 2.638 0 4.775-2.627 4.775-5.867s-2.137-5.867-4.775-5.867c-2.637 0-4.775 2.627-4.775 5.867" transform="translate(133 111)"/>
            <g>
                <g fill="#BF9171">
                    <path d="M21.463 3.658c1.254-.03 2.295.964 2.324 2.219l.284 12.188c.016.659-.505 1.206-1.165 1.22l-2.158.052c-.658.015-1.205-.507-1.221-1.165l-.284-12.19c-.03-1.254.965-2.295 2.22-2.324" transform="translate(133 111) translate(0 .729) scale(-1 1) rotate(-20 -.225 149.74)"/>
                    <path d="M17.027 1.22c1.254-.029 2.295.964 2.324 2.22l.284 12.188c.016.658-.505 1.204-1.164 1.22l-2.16.051c-.658.014-1.204-.506-1.22-1.164l-.284-12.19c-.028-1.256.965-2.296 2.22-2.325" transform="translate(133 111) translate(0 .729) scale(-1 1) rotate(-20 -.225 149.74)"/>
                    <path d="M12.88 0c1.255-.028 2.296.966 2.325 2.22l.284 12.189c.016.659-.505 1.205-1.165 1.22l-2.158.05c-.658.016-1.205-.505-1.22-1.164l-.285-12.19c-.029-1.254.965-2.295 2.22-2.324" transform="translate(133 111) translate(0 .729) scale(-1 1) rotate(-20 -.225 149.74)"/>
                    <path d="M8.583 1.22c1.427-.033 2.61 1.097 2.645 2.524l.273 11.711c.018.75-.576 1.372-1.326 1.39l-3.29.076c-.288.007-.528-.222-.534-.51L6.058 3.864C6.024 2.437 7.155 1.253 8.583 1.22" transform="translate(133 111) translate(0 .729) scale(-1 1) rotate(-20 -.225 149.74)"/>
                    <path d="M22.147 40.699l-6.999-5.93c-4.751.319-8.791-3.252-8.791-7.772V16.572l17.586-3.617.172 19.414-1.968 8.33z" transform="translate(133 111) translate(0 .729) scale(-1 1) rotate(-20 -.225 149.74)"/>
                    <path d="M1.391 15.323c1.262-.67 2.826-.188 3.496 1.072l5.49 10.35c.351.662.1 1.483-.564 1.835l-2.906 1.542c-.255.136-.573.038-.707-.217L.32 18.819c-.67-1.262-.19-2.827 1.071-3.496M24.115 32.37s2.95-9.569-.328-26.494l.328 26.493z" transform="translate(133 111) translate(0 .729) scale(-1 1) rotate(-20 -.225 149.74)"/>
                    <path d="M2.245 22.423S5.433 32.631 10.29 33.7v-5.638" transform="translate(133 111) translate(0 .729) scale(-1 1) rotate(-20 -.225 149.74)"/>
                </g>
                <path fill="#52924F" d="M38 157.771l-2.5-32.5c8.818-11.197 17.18-18.624 25.086-22.28 5.888-2.724 12.752-4.216 20.58-4.216 32.678 0 59.168 26.49 59.168 59.166L38 157.772z" transform="translate(133 111) translate(0 .729)"/>
                <path fill="#52924F" d="M77.5 99.271c-7.33-.106-12.33-.106-15 0-8.603.342-13.95.865-21-.5-15.5-3-15.5-16.5-13-34 1.667-11.667 3.667-21 6-28l-20-2c-10 21-14.667 39.833-14 56.5 1 25 24.5 39.5 41 43l36-35z" transform="translate(133 111) translate(0 .729)"/>
            </g>
            <path fill="#BF9171" d="M81.167 32c-12.22 0-22.125 9.905-22.125 22.125v18.728c0 9.744 6.303 18.011 15.052 20.962.092.962.219 4.382-2.284 6.429 0 0 1.496 1.827 9.357 1.827 7.86 0 9.357-1.827 9.357-1.827-2.503-2.047-2.376-5.467-2.284-6.429 8.749-2.951 15.052-11.218 15.052-20.962V54.125c0-12.22-9.906-22.125-22.125-22.125" transform="translate(133 111)"/>
            <path fill="#AA7F61" d="M81.905 65.471l-2.909 5.318c-.253.462-.099 1.041.35 1.317l2.56 1.578v-8.213z" transform="translate(133 111)"/>
            <g transform="translate(133 111) translate(59 31.729)">
                <mask id="rk7v2ryg5b" fill="#fff">
                    <use xlink:href="#wtqiplfa6a"/>
                </mask>
                <path fill="#68462F" d="M22.472.279C22.37.278 22.269.27 22.167.27 9.948.27.042 10.176.042 22.396v15.453l2.543-3.008C4.063 19.507 6.01 15.338 6.01 15.338s4.319-3.994 16.462-3.994V.279z" mask="url(#rk7v2ryg5b)"/>
            </g>
            <g transform="translate(133 111) translate(80 31.729)">
                <mask id="eyq6dgczid" fill="#fff">
                    <use xlink:href="#5qp90vaqic"/>
                </mask>
                <path fill="#68462F" d="M.862.279C.964.278 1.065.27 1.167.27c12.219 0 22.125 9.905 22.125 22.125v15.453l-2.543-3.008c-1.478-15.334-3.426-19.503-3.426-19.503S13.005 11.344.862 11.344V.279z" mask="url(#eyq6dgczid)"/>
            </g>
            <path fill="#845D42" d="M72.968 77.149s1.933 1.401 8.199 1.32v4.679s-7.283.166-8.2-5.999M89.366 77.149s-1.934 1.401-8.199 1.32v4.679s7.282.166 8.2-5.999" transform="translate(133 111)"/>
            <path fill="#E7642A" d="M155.62 45.096s16.834-3.764 23.595 10.556c9.91 20.99 6.218 63.716-5.417 77.382-11.636 13.667-35.83 0-35.83 0l17.651-87.938z" transform="translate(133 111)"/>
            <path fill="#E7642A" d="M157.342 45.096s-16.338-8.936-27.107 9.957c-2.323 4.075-3.802 8.578-4.496 13.217-4.858 32.48-9.524 45.156-20.028 58.093 0 0 29.33 16.548 51.479 8.871l.152-90.138z" transform="translate(133 111)"/>
            <path fill="#F2DA77" d="M206.966 158.729c0-28.4-23.023-51.423-51.423-51.423-28.4 0-51.423 23.023-51.423 51.423h102.846z" transform="translate(133 111)"/>
            <path fill="#FFF" d="M140.54 78.54c0 2.816-1.857 5.099-4.15 5.099-2.291 0-4.15-2.283-4.15-5.1 0-2.815 1.859-5.098 4.15-5.098 2.293 0 4.15 2.283 4.15 5.099" transform="translate(133 111)"/>
            <path fill="#FFDBD7" d="M155.543 48.637c-10.62 0-19.229 8.61-19.229 19.23v16.276c0 8.47 5.478 15.654 13.082 18.22.08.835.19 3.807-1.986 5.587 0 0 1.3 1.587 8.133 1.587 6.832 0 8.132-1.587 8.132-1.587-2.175-1.78-2.065-4.752-1.985-5.588 7.604-2.565 13.082-9.75 13.082-18.219V67.866c0-10.62-8.609-19.229-19.229-19.229" transform="translate(133 111)"/>
            <path fill="#FFDBD7" d="M170.698 79.831c0 2.816 1.858 5.1 4.15 5.1 2.292 0 4.15-2.284 4.15-5.1s-1.858-5.099-4.15-5.099c-2.292 0-4.15 2.283-4.15 5.1" transform="translate(133 111)"/>
            <path fill="#E7642A" d="M155.62 56.485c.72-.437 2.543-1.404 4.936-1.216.319.025 2.932.268 4.987 2.24 3.338 3.205.707 7.412 3.505 12.296.915 1.596 3.006 3.26 5.8 4.928l1.366-16.108-12.84-12.974-7.755.737v10.097z" transform="translate(133 111)"/>
            <path fill="#E7642A" d="M155.62 56.485c-.558-.396-2.59-1.744-4.938-1.216-.47.106-2.23.574-4.064 3.43-2.833 4.413-.488 6.72-2.977 12.077-.061.13.018-.044-3.764 6.29-1.3 2.178-1.959 3.294-2.442 4.657-.868 2.452-.953 4.667-.886 6.167-3.71-2.1-5.447-4.684-6.24-6.155-3.541-6.568-1.683-15.768 4.715-23.11l12.84-12.974 7.755.737v10.097z" transform="translate(133 111)"/>
            <path fill="#F4C3C1" d="M155.655 78.03l-2.167 3.96c-.188.346-.074.777.26.983l1.907 1.176v-6.12z" transform="translate(133 111)"/>
            <path fill="#EFB6B6" d="M150.652 88.314s2.448.152 4.744.152v3.969s-4.074 0-4.744-4.12M160.14 88.314s-2.448.152-4.744.152v3.969s4.074 0 4.744-4.12" transform="translate(133 111)"/>
            <path fill="#84C9F7" d="M178.298 158.684c0-28.399 23.023-51.422 51.423-51.422 28.4 0 51.423 23.023 51.423 51.422H178.298z" transform="translate(133 111)"/>
            <path fill="#FFDECC" d="M229.721 48.593c-10.62 0-19.229 8.609-19.229 19.229v16.276c0 8.47 5.478 15.655 13.082 18.22.08.836.19 3.808-1.985 5.588 0 0 1.3 1.587 8.132 1.587 6.833 0 8.133-1.587 8.133-1.587-2.176-1.78-2.066-4.752-1.986-5.588 7.604-2.565 13.082-9.75 13.082-18.22V67.822c0-10.62-8.609-19.23-19.229-19.23" transform="translate(133 111)"/>
            <path fill="#FFDECC" d="M214.643 78.703c0 2.816-1.858 5.1-4.15 5.1-2.293 0-4.151-2.284-4.151-5.1s1.858-5.099 4.15-5.099c2.293 0 4.15 2.283 4.15 5.1M244.8 78.703c0 2.816 1.857 5.1 4.15 5.1 2.292 0 4.15-2.284 4.15-5.1s-1.858-5.099-4.15-5.099c-2.293 0-4.15 2.283-4.15 5.1" transform="translate(133 111)"/>
            <path fill="#E8BB00" d="M210.493 81.459c-.365-1.324-.844-3.209-1.285-5.502-1.077-5.597-1.177-9.706-1.195-10.786-.075-4.394-.112-6.59.943-8.819 1.375-2.903 3.693-4.48 5.079-5.246.932-2.069 2.04-3.364 2.857-4.15 0 0 4.366-4.206 15.79-4.206 2.01 0 3.543.44 4.212.59.612.138 1.45.362 2.539.738 3.53 1.22 3.69 2.008 6.353 2.951 3.045 1.08 4.123.503 6.464 2.063.767.511 1.283.855 1.807 1.538 2.432 3.168.776 8.067.619 8.514-.295.836-.898 2.21-2.154 3.614-.258 3.643-.797 7.79-1.821 12.277-.525 2.303-1.122 4.447-1.751 6.424-.05-.82-.087-1.469-.11-1.85-.183-3.25-.195-4.19-.501-5.638-.15-.706-.297-1.136-.38-1.481-.454-1.888-.821-4.681-.33-8.496-2.803 1.436-7.407 3.261-12.875 2.692-8.758-.91-13.242-7.214-17.632-5.832-1.8.566-2.914 3.293-4.013 8.808-.471 2.364-1.617 3.74-1.904 5.33-.42 2.328-.451 3.206-.712 6.466" transform="translate(133 111)"/>
            <path fill="#F2CCBB" d="M229.987 78.703l-1.806 3.301c-.157.287-.061.646.217.818l1.589.98v-5.099zM229.987 91.943c-4.225 0-5.828-2.958-5.894-3.084-.128-.244-.034-.547.21-.675.246-.128.547-.034.676.21.054.102 1.407 2.549 5.008 2.549 3.628 0 4.995-2.523 5.009-2.55.128-.244.43-.335.675-.21.244.129.338.432.21.676-.066.126-1.668 3.084-5.894 3.084" transform="translate(133 111)"/>
            <path fill="#32692F" d="M366.602 97.951l-6.65-2.766s-6.564-9.212-5.668-25.167c.894-15.956 12.318-21.739 18.492-19.355 3.535-7.053 29.93-7.799 33.999 13.801 3.844 20.415-3.73 30.785-3.73 30.785l-8.153 3.8-28.29-1.098z" transform="translate(133 111)"/>
            <path fill="#B594DB" d="M331.374 158.684c0-27.527 22.315-49.843 49.844-49.843 27.527 0 49.843 22.316 49.843 49.843h-99.687z" transform="translate(133 111)"/>
            <g>
                <g transform="translate(133 111) rotate(18 70.078 878.7) translate(2.167 7.702)">
                    <mask id="4ifeh21k0f" fill="#fff">
                        <use xlink:href="#gt2upb7zue"/>
                    </mask>
                    <path fill="#F2D3B6" d="M.128 11.624l4.617 4.617c1.615 1.615 4.327 2.81 6.565 2.352L17.821 25l8-8-6.905-6.904-.09-1.098c-.232-2.803-1.72-5.35-4.05-6.926L11.736.014" mask="url(#4ifeh21k0f)"/>
                </g>
                <g transform="translate(133 111) rotate(18 70.078 878.7) translate(11.167 .035)">
                    <mask id="qa4kbj1a3h" fill="#fff">
                        <use xlink:href="#5wgk22gjag"/>
                    </mask>
                    <path fill="#F2D3B6" d="M11.468 2.678c.252-.942-.538-1.835-1.503-1.7-1.11.155-1.874.822-2.385 1.82-.764 1.888-1.43 3.388-2 4.5-.33.644-1.747 1.166-3.247.167-.333-.334-.5 1.723-.5 6.171 0 0 2.378 6.215 4.564 8.401l7.817 7.817 4.353-4.354-5.311-5.311c-1.023-1.022-1.61-2.4-1.642-3.846-.033-1.575-.326-3.134-.866-4.614-.64-1.75-.724-3.656-.242-5.457l.962-3.594z" mask="url(#qa4kbj1a3h)"/>
                </g>
                <path fill="#F2D3B6" d="M13.04 12.657L8.454 8.073c-.506-.507-.506-1.328 0-1.835L9.522 5.17c.507-.507 1.329-.507 1.836 0l4.584 4.584c.801.801.801 2.1 0 2.902-.802.802-2.101.802-2.903 0" transform="translate(133 111) rotate(18 70.078 878.7)"/>
                <path fill="#F2D3B6" d="M10.137 15.56l-4.882-4.883c-.507-.506-.507-1.328 0-1.835l1.067-1.067c.507-.507 1.329-.507 1.836 0l4.881 4.882c.802.801.802 2.1 0 2.902-.801.802-2.1.802-2.902 0M7.235 18.462L2.65 13.878c-.507-.507-.507-1.329 0-1.836l1.067-1.067c.506-.506 1.328-.506 1.835 0l4.584 4.584c.801.802.801 2.101 0 2.903-.802.801-2.1.801-2.902 0" transform="translate(133 111) rotate(18 70.078 878.7)"/>
                <path fill="#F2D3B6" d="M4.332 21.364L.38 17.412c-.507-.507-.507-1.33 0-1.836l1.067-1.067c.507-.506 1.328-.506 1.835 0l3.953 3.953c.801.801.801 2.1 0 2.902-.802.801-2.101.801-2.903 0" transform="translate(133 111) rotate(18 70.078 878.7)"/>
            </g>
            <path fill="#B594DB" d="M380 109c3.054-.003 4.554-.003 4.5 0-12.533.658-20.364 1-25 1-21.479 0-43.717-27.961-63.5-60.5l-18 5c19.333 47 45.167 75 77.5 84s40.5-.833 24.5-29.5z" transform="translate(133 111)"/>
            <path fill="#F2D3B6" d="M381.218 51.974c-10.294 0-18.639 8.345-18.639 18.638V86.39c0 8.21 5.31 15.173 12.68 17.66.077.81.185 3.691-1.924 5.415 0 0 1.26 1.54 7.883 1.54 6.622 0 7.882-1.54 7.882-1.54-2.109-1.724-2-4.605-1.924-5.415 7.37-2.487 12.68-9.45 12.68-17.66V70.612c0-10.293-8.345-18.638-18.638-18.638" transform="translate(133 111)"/>
            <path fill="#F2D3B6" d="M366.602 81.16c0 2.73-1.801 4.941-4.022 4.941-2.222 0-4.023-2.212-4.023-4.942 0-2.729 1.8-4.942 4.023-4.942 2.22 0 4.022 2.213 4.022 4.942M395.833 81.16c0 2.73 1.801 4.941 4.022 4.941 2.222 0 4.023-2.212 4.023-4.942 0-2.729-1.8-4.942-4.023-4.942-2.22 0-4.022 2.213-4.022 4.942" transform="translate(133 111)"/>
            <path fill="#EAC5A7" d="M381.658 80.665l-2.101 3.84c-.182.334-.071.752.252.952l1.849 1.14v-5.932z" transform="translate(133 111)"/>
            <path fill="#E2B99A" d="M381.475 93.618c-3.018 0-4.17-2.127-4.217-2.218-.129-.244-.034-.547.21-.675.243-.126.547-.035.675.21.036.066.938 1.683 3.332 1.683 2.42 0 3.323-1.666 3.332-1.683.128-.245.432-.336.675-.21.244.128.339.431.21.675-.047.091-1.199 2.218-4.217 2.218" transform="translate(133 111)"/>
            <path fill="#32692F" d="M362.58 76.217s2.216-17.723 12.34-16.77c0 0 2.895-3.984 10.33-2.57 13.5 2.57 14.606 19.34 14.606 19.34l3.47-15.675-15.26-12.14-16.038 3.006-8.91 5.124-4.56 9.133 4.022 10.552z" transform="translate(133 111)"/>
            <path fill="#061F42" d="M289.457 79.302s-6-31.104 23.767-29.557c28.075 1.46 17.505 30.473 17.505 30.473l-41.272-.916z" transform="translate(133 111)"/>
            <path fill="#FF977B" d="M358.8 158.729c0-26.855-21.77-48.626-48.626-48.626-26.855 0-48.626 21.771-48.626 48.626H358.8z" transform="translate(133 111)"/>
            <path fill="#9E7254" d="M295.988 82.901c0 2.663-1.757 4.822-3.925 4.822-2.167 0-3.924-2.159-3.924-4.822 0-2.663 1.757-4.82 3.924-4.82 2.168 0 3.925 2.157 3.925 4.82" transform="translate(133 111)"/>
            <path fill="#9E7254" d="M310.174 54.626c-10.042 0-18.183 8.141-18.183 18.183V88.2c0 8.009 5.18 14.803 12.371 17.228.075.791.18 3.602-1.878 5.283 0 0 1.23 1.502 7.69 1.502 6.461 0 7.69-1.502 7.69-1.502-2.057-1.681-1.953-4.492-1.878-5.283 7.191-2.425 12.371-9.219 12.371-17.228V72.809c0-10.042-8.14-18.183-18.183-18.183" transform="translate(133 111)"/>
            <path fill="#9E7254" d="M324.504 84.123c0 2.663 1.757 4.822 3.925 4.822 2.167 0 3.925-2.159 3.925-4.822 0-2.663-1.758-4.822-3.925-4.822-2.168 0-3.925 2.16-3.925 4.822" transform="translate(133 111)"/>
            <path fill="#916649" d="M310.493 81.84l-2.459 4.496c-.214.39-.084.88.296 1.114l2.163 1.334V81.84z" transform="translate(133 111)"/>
            <path fill="#845D42" d="M304.09 91.897s3.14.98 6.084.98v4.305s-5.226 0-6.084-5.285M316.258 91.897s-3.14.98-6.084.98v4.305s5.225 0 6.084-5.285" transform="translate(133 111)"/>
            <path fill="#061F42" d="M291.992 78.08s13.63-1.817 24.364-13.153c0 0 3.782 9.19 12 14.376l.074-14.524-7.628-9.485-12.02-2.463-12.794 4.094-5.198 12.274 1.202 8.882z" transform="translate(133 111)"/>
            <path fill="#061F42" d="M328.117 49.06c0 4.308-3.493 7.801-7.802 7.801-4.308 0-7.802-3.493-7.802-7.802 0-4.309 3.494-7.802 7.802-7.802 4.309 0 7.802 3.493 7.802 7.802" transform="translate(133 111)"/>
        </g>
    </g>
</svg>
