<svg width="24" height="24" viewBox="0 0 24 24" fill="none" xmlns="http://www.w3.org/2000/svg">
<path fill-rule="evenodd" clip-rule="evenodd" d="M6 6H5V7H6.05357L6.6075 17.3397C6.68738 18.83 8.00513 20 9.60375 20H14.3962C15.9949 20 17.3126 18.83 17.3925 17.3397L17.9464 7H19V6H18H15.3465L15.0602 5.23615C14.7798 4.48935 14.0161 4 13.1689 4H10.8311C9.98394 4 9.22021 4.48935 8.93991 5.23592L8.65346 6H6ZM9.72142 6H14.2786L14.1239 5.58742C13.9954 5.24507 13.6129 5 13.1689 5H10.8311C10.3871 5 10.0046 5.24507 9.87618 5.58718L9.72142 6ZM16.945 7H7.05501L7.60607 17.2861C7.6567 18.2309 8.52288 19 9.60375 19H14.3962C15.4771 19 16.3433 18.2309 16.3939 17.2862L16.945 7ZM10 9V16H11V9H10ZM13 16V9H14V16H13Z" fill="#50555C"/>
</svg>
