<svg width="24" height="24" viewBox="0 0 24 24" fill="none" xmlns="http://www.w3.org/2000/svg">
<path fill-rule="evenodd" clip-rule="evenodd" d="M4.5 5C4.22386 5 4 5.22386 4 5.5V16C4 16.2022 4.12182 16.3845 4.30866 16.4619C4.4955 16.5393 4.71055 16.4966 4.85355 16.3536L7.20711 14H15.5C15.7761 14 16 13.7761 16 13.5V5.5C16 5.22386 15.7761 5 15.5 5H4.5ZM5 14.7929V6H15V13H7C6.86739 13 6.74021 13.0527 6.64645 13.1464L5 14.7929Z" fill="#50555C"/>
<path d="M19.5 8H17V9H19V17.7929L17.3536 16.1464C17.2598 16.0527 17.1326 16 17 16H9V15H8V16.5C8 16.7761 8.22386 17 8.5 17H16.7929L19.1464 19.3536C19.2894 19.4966 19.5045 19.5393 19.6913 19.4619C19.8782 19.3845 20 19.2022 20 19V8.5C20 8.22386 19.7761 8 19.5 8Z" fill="#50555C"/>
</svg>
