<svg width="46" height="48" viewBox="0 0 46 48" fill="none" xmlns="http://www.w3.org/2000/svg">
<path d="M20.3424 1.07574C21.8242 -0.358579 24.1758 -0.358581 25.6576 1.07574L27.9566 3.30105C28.804 4.12126 29.9822 4.50431 31.1495 4.3391L34.3167 3.89087C36.3581 3.60196 38.2606 4.98503 38.6168 7.0169L39.1695 10.1693C39.3732 11.3312 40.1014 12.3341 41.1428 12.8869L43.9684 14.387C45.7897 15.3539 46.5164 17.5917 45.6109 19.445L44.2062 22.3204C43.6884 23.3802 43.6884 24.6198 44.2062 25.6796L45.6109 28.555C46.5164 30.4083 45.7897 32.6461 43.9684 33.613L41.1428 35.1131C40.1014 35.6659 39.3732 36.6688 39.1695 37.8307L38.6168 40.9831C38.2606 43.015 36.3581 44.398 34.3167 44.1091L31.1495 43.6609C29.9822 43.4957 28.804 43.8787 27.9566 44.6989L25.6576 46.9243C24.1758 48.3586 21.8242 48.3586 20.3424 46.9243L18.0434 44.6989C17.196 43.8787 16.0178 43.4957 14.8505 43.6609L11.6833 44.1091C9.64191 44.398 7.73938 43.015 7.38316 40.9831L6.83051 37.8307C6.62681 36.6688 5.89862 35.6659 4.85716 35.1131L2.03157 33.613C0.21033 32.6461 -0.516375 30.4083 0.389058 28.555L1.79381 25.6796C2.31158 24.6198 2.31158 23.3802 1.79381 22.3204L0.389059 19.445C-0.516374 17.5917 0.210328 15.3539 2.03156 14.387L4.85716 12.8869C5.89862 12.3341 6.62681 11.3312 6.83051 10.1693L7.38316 7.0169C7.73938 4.98503 9.64191 3.60196 11.6833 3.89087L14.8505 4.3391C16.0178 4.50431 17.196 4.12126 18.0434 3.30105L20.3424 1.07574Z" fill="#E5F8F7"/>
<path d="M12 20.92C12 19.8596 12.985 19 14.2 19H31.8C33.015 19 34 19.8596 34 20.92V33.08C34 34.1404 33.015 35 31.8 35H14.2C12.985 35 12 34.1404 12 33.08V20.92Z" fill="#7FDEDB"/>
<path fill-rule="evenodd" clip-rule="evenodd" d="M21.5 35L21.5 19L24.5 19L24.5 35L21.5 35Z" fill="#00BDB8"/>
<path fill-rule="evenodd" clip-rule="evenodd" d="M17 15C17 16.1046 17.8954 17 19 17H21V15C21 13.8954 20.1046 13 19 13C17.8954 13 17 13.8954 17 15ZM23 19V15C23 12.7909 21.2091 11 19 11C16.7909 11 15 12.7909 15 15C15 17.2091 16.7909 19 19 19H23Z" fill="#00BDB8"/>
<path fill-rule="evenodd" clip-rule="evenodd" d="M29 15C29 16.1046 28.1046 17 27 17H25V15C25 13.8954 25.8954 13 27 13C28.1046 13 29 13.8954 29 15ZM23 19V15C23 12.7909 24.7909 11 27 11C29.2091 11 31 12.7909 31 15C31 17.2091 29.2091 19 27 19H23Z" fill="#00BDB8"/>
</svg>
